<svg xmlns="http://www.w3.org/2000/svg" viewBox="0 0 512 512">
  <defs>
    <linearGradient id="dropGrad" x1="0%" y1="0%" x2="100%" y2="100%">
      <stop offset="0%" style="stop-color:#cce5ff"/>
      <stop offset="20%" style="stop-color:#7ec8e3"/>
      <stop offset="40%" style="stop-color:#50b4d8"/>
      <stop offset="60%" style="stop-color:#0096c7"/>
      <stop offset="80%" style="stop-color:#0077b6"/>
      <stop offset="100%" style="stop-color:#005f8a"/>
    </linearGradient>
  </defs>
  <!-- Main water drop -->
  <path d="M256 20 C256 20 80 240 80 340 C80 430 160 492 256 492 C352 492 432 430 432 340 C432 240 256 20 256 20Z" fill="url(#dropGrad)"/>
  <!-- Inner layers -->
  <path d="M256 50 C256 50 105 245 105 335 C105 415 175 470 256 470 C337 470 407 415 407 335 C407 245 256 50 256 50Z" fill="#7ec8e3" opacity="0.4"/>
  <path d="M256 85 C256 85 135 250 135 330 C135 400 190 445 256 445 C322 445 377 400 377 330 C377 250 256 85 256 85Z" fill="#50b4d8" opacity="0.35"/>
  <path d="M256 120 C256 120 165 255 165 325 C165 385 205 420 256 420 C307 420 347 385 347 325 C347 255 256 120 256 120Z" fill="#0096c7" opacity="0.3"/>
  <!-- White highlight -->
  <ellipse cx="320" cy="260" rx="30" ry="70" fill="white" opacity="0.5" transform="rotate(-20 320 260)"/>
</svg>
