<svg xmlns="http://www.w3.org/2000/svg" viewBox="0 0 100 120">
  <defs>
    <linearGradient id="dropGrad" x1="0%" y1="0%" x2="100%" y2="100%">
      <stop offset="0%" style="stop-color:#cce5ff"/>
      <stop offset="20%" style="stop-color:#7ec8e3"/>
      <stop offset="40%" style="stop-color:#50b4d8"/>
      <stop offset="60%" style="stop-color:#0096c7"/>
      <stop offset="80%" style="stop-color:#0077b6"/>
      <stop offset="100%" style="stop-color:#005f8a"/>
    </linearGradient>
  </defs>
  <!-- Main water drop -->
  <path d="M50 5 C50 5 15 50 15 75 C15 98 30 115 50 115 C70 115 85 98 85 75 C85 50 50 5 50 5Z" fill="url(#dropGrad)"/>
  <!-- Inner layers -->
  <path d="M50 15 C50 15 22 52 22 73 C22 93 35 107 50 107 C65 107 78 93 78 73 C78 52 50 15 50 15Z" fill="#7ec8e3" opacity="0.4"/>
  <path d="M50 25 C50 25 30 55 30 72 C30 88 40 98 50 98 C60 98 70 88 70 72 C70 55 50 25 50 25Z" fill="#50b4d8" opacity="0.35"/>
  <path d="M50 35 C50 35 38 58 38 70 C38 82 43 90 50 90 C57 90 62 82 62 70 C62 58 50 35 50 35Z" fill="#0096c7" opacity="0.3"/>
  <!-- White highlight -->
  <ellipse cx="62" cy="55" rx="6" ry="15" fill="white" opacity="0.5" transform="rotate(-20 62 55)"/>
</svg>
