<svg xmlns="http://www.w3.org/2000/svg" viewBox="0 0 100 120" fill="none">
  <defs>
    <linearGradient id="dropGradient" x1="0%" y1="0%" x2="100%" y2="100%">
      <stop offset="0%" style="stop-color:#cce5ff;stop-opacity:1" />
      <stop offset="25%" style="stop-color:#7ec8e3;stop-opacity:1" />
      <stop offset="50%" style="stop-color:#50b4d8;stop-opacity:1" />
      <stop offset="75%" style="stop-color:#0096c7;stop-opacity:1" />
      <stop offset="100%" style="stop-color:#005f8a;stop-opacity:1" />
    </linearGradient>
  </defs>
  <!-- Water drop shape with layered effect -->
  <path d="M50 5 C50 5 15 55 15 75 C15 95 30 115 50 115 C70 115 85 95 85 75 C85 55 50 5 50 5Z" fill="url(#dropGradient)"/>
  <!-- Inner highlight layers -->
  <path d="M50 12 C50 12 22 55 22 73 C22 90 34 108 50 108 C66 108 78 90 78 73 C78 55 50 12 50 12Z" fill="#7ec8e3" opacity="0.4"/>
  <path d="M50 20 C50 20 30 55 30 72 C30 87 38 100 50 100 C62 100 70 87 70 72 C70 55 50 20 50 20Z" fill="#50b4d8" opacity="0.3"/>
  <path d="M50 28 C50 28 38 55 38 70 C38 82 43 92 50 92 C57 92 62 82 62 70 C62 55 50 28 50 28Z" fill="#0096c7" opacity="0.3"/>
  <!-- White highlight -->
  <ellipse cx="62" cy="55" rx="6" ry="15" fill="white" opacity="0.6" transform="rotate(-20 62 55)"/>
</svg>